<mxfile host="app.diagrams.net" modified="2021-10-17T19:42:24.768Z" agent="5.0 (Windows NT 10.0; Win64; x64) AppleWebKit/537.36 (KHTML, like Gecko) Chrome/94.0.4606.81 Safari/537.36" etag="noAGl3f9OFXJ75u4JU3x" version="15.5.1" type="github">
  <diagram name="Page-1" id="bd83a815-5ea8-2e97-e5ec-87c9f400f2fa">
    <mxGraphModel dx="1422" dy="762" grid="1" gridSize="10" guides="1" tooltips="1" connect="1" arrows="1" fold="1" page="1" pageScale="1.5" pageWidth="1169" pageHeight="826" background="none" math="0" shadow="0">
      <root>
        <mxCell id="0" style=";html=1;" />
        <mxCell id="1" style=";html=1;" parent="0" />
        <mxCell id="ddricrF3TzjCCp_cF3EX-1" value="" style="whiteSpace=wrap;html=1;aspect=fixed;" vertex="1" parent="1">
          <mxGeometry x="180" y="10" width="610" height="610" as="geometry" />
        </mxCell>
        <mxCell id="ddricrF3TzjCCp_cF3EX-2" value="Table" style="shape=table;startSize=30;container=1;collapsible=0;childLayout=tableLayout;fontStyle=1;align=center;pointerEvents=1;" vertex="1" parent="1">
          <mxGeometry x="170" y="10" width="370" height="130" as="geometry" />
        </mxCell>
        <mxCell id="ddricrF3TzjCCp_cF3EX-3" value="" style="shape=partialRectangle;html=1;whiteSpace=wrap;collapsible=0;dropTarget=0;pointerEvents=0;fillColor=none;top=0;left=0;bottom=0;right=0;points=[[0,0.5],[1,0.5]];portConstraint=eastwest;" vertex="1" parent="ddricrF3TzjCCp_cF3EX-2">
          <mxGeometry y="30" width="370" height="40" as="geometry" />
        </mxCell>
        <mxCell id="ddricrF3TzjCCp_cF3EX-4" value="Hole" style="shape=partialRectangle;html=1;whiteSpace=wrap;connectable=0;fillColor=none;top=0;left=0;bottom=0;right=0;overflow=hidden;pointerEvents=1;" vertex="1" parent="ddricrF3TzjCCp_cF3EX-3">
          <mxGeometry width="120" height="40" as="geometry">
            <mxRectangle width="120" height="40" as="alternateBounds" />
          </mxGeometry>
        </mxCell>
        <mxCell id="ddricrF3TzjCCp_cF3EX-5" value="Par" style="shape=partialRectangle;html=1;whiteSpace=wrap;connectable=0;fillColor=none;top=0;left=0;bottom=0;right=0;overflow=hidden;pointerEvents=1;" vertex="1" parent="ddricrF3TzjCCp_cF3EX-3">
          <mxGeometry x="120" width="150" height="40" as="geometry">
            <mxRectangle width="150" height="40" as="alternateBounds" />
          </mxGeometry>
        </mxCell>
        <mxCell id="ddricrF3TzjCCp_cF3EX-6" value="score" style="shape=partialRectangle;html=1;whiteSpace=wrap;connectable=0;fillColor=none;top=0;left=0;bottom=0;right=0;overflow=hidden;pointerEvents=1;" vertex="1" parent="ddricrF3TzjCCp_cF3EX-3">
          <mxGeometry x="270" width="100" height="40" as="geometry">
            <mxRectangle width="100" height="40" as="alternateBounds" />
          </mxGeometry>
        </mxCell>
        <mxCell id="ddricrF3TzjCCp_cF3EX-7" value="" style="shape=partialRectangle;html=1;whiteSpace=wrap;collapsible=0;dropTarget=0;pointerEvents=0;fillColor=none;top=0;left=0;bottom=0;right=0;points=[[0,0.5],[1,0.5]];portConstraint=eastwest;" vertex="1" parent="ddricrF3TzjCCp_cF3EX-2">
          <mxGeometry y="70" width="370" height="30" as="geometry" />
        </mxCell>
        <mxCell id="ddricrF3TzjCCp_cF3EX-8" value="1" style="shape=partialRectangle;html=1;whiteSpace=wrap;connectable=0;fillColor=none;top=0;left=0;bottom=0;right=0;overflow=hidden;pointerEvents=1;" vertex="1" parent="ddricrF3TzjCCp_cF3EX-7">
          <mxGeometry width="120" height="30" as="geometry">
            <mxRectangle width="120" height="30" as="alternateBounds" />
          </mxGeometry>
        </mxCell>
        <mxCell id="ddricrF3TzjCCp_cF3EX-9" value="-" style="shape=partialRectangle;html=1;whiteSpace=wrap;connectable=0;fillColor=none;top=0;left=0;bottom=0;right=0;overflow=hidden;pointerEvents=1;" vertex="1" parent="ddricrF3TzjCCp_cF3EX-7">
          <mxGeometry x="120" width="150" height="30" as="geometry">
            <mxRectangle width="150" height="30" as="alternateBounds" />
          </mxGeometry>
        </mxCell>
        <mxCell id="ddricrF3TzjCCp_cF3EX-10" value="-" style="shape=partialRectangle;html=1;whiteSpace=wrap;connectable=0;fillColor=none;top=0;left=0;bottom=0;right=0;overflow=hidden;pointerEvents=1;" vertex="1" parent="ddricrF3TzjCCp_cF3EX-7">
          <mxGeometry x="270" width="100" height="30" as="geometry">
            <mxRectangle width="100" height="30" as="alternateBounds" />
          </mxGeometry>
        </mxCell>
        <mxCell id="ddricrF3TzjCCp_cF3EX-11" value="" style="shape=partialRectangle;html=1;whiteSpace=wrap;collapsible=0;dropTarget=0;pointerEvents=0;fillColor=none;top=0;left=0;bottom=0;right=0;points=[[0,0.5],[1,0.5]];portConstraint=eastwest;" vertex="1" parent="ddricrF3TzjCCp_cF3EX-2">
          <mxGeometry y="100" width="370" height="30" as="geometry" />
        </mxCell>
        <mxCell id="ddricrF3TzjCCp_cF3EX-12" value="2" style="shape=partialRectangle;html=1;whiteSpace=wrap;connectable=0;fillColor=none;top=0;left=0;bottom=0;right=0;overflow=hidden;pointerEvents=1;" vertex="1" parent="ddricrF3TzjCCp_cF3EX-11">
          <mxGeometry width="120" height="30" as="geometry">
            <mxRectangle width="120" height="30" as="alternateBounds" />
          </mxGeometry>
        </mxCell>
        <mxCell id="ddricrF3TzjCCp_cF3EX-13" value="-" style="shape=partialRectangle;html=1;whiteSpace=wrap;connectable=0;fillColor=none;top=0;left=0;bottom=0;right=0;overflow=hidden;pointerEvents=1;" vertex="1" parent="ddricrF3TzjCCp_cF3EX-11">
          <mxGeometry x="120" width="150" height="30" as="geometry">
            <mxRectangle width="150" height="30" as="alternateBounds" />
          </mxGeometry>
        </mxCell>
        <mxCell id="ddricrF3TzjCCp_cF3EX-14" value="-" style="shape=partialRectangle;html=1;whiteSpace=wrap;connectable=0;fillColor=none;top=0;left=0;bottom=0;right=0;overflow=hidden;pointerEvents=1;" vertex="1" parent="ddricrF3TzjCCp_cF3EX-11">
          <mxGeometry x="270" width="100" height="30" as="geometry">
            <mxRectangle width="100" height="30" as="alternateBounds" />
          </mxGeometry>
        </mxCell>
        <mxCell id="ddricrF3TzjCCp_cF3EX-41" value="Over" style="rounded=0;whiteSpace=wrap;html=1;" vertex="1" parent="1">
          <mxGeometry x="540" y="40" width="80" height="40" as="geometry" />
        </mxCell>
        <mxCell id="ddricrF3TzjCCp_cF3EX-42" value="Actions" style="rounded=0;whiteSpace=wrap;html=1;" vertex="1" parent="1">
          <mxGeometry x="620" y="40" width="170" height="40" as="geometry" />
        </mxCell>
        <mxCell id="ddricrF3TzjCCp_cF3EX-43" value="+" style="ellipse;whiteSpace=wrap;html=1;" vertex="1" parent="1">
          <mxGeometry x="620" y="80" width="50" height="30" as="geometry" />
        </mxCell>
        <mxCell id="ddricrF3TzjCCp_cF3EX-44" value="+" style="ellipse;whiteSpace=wrap;html=1;" vertex="1" parent="1">
          <mxGeometry x="620" y="110" width="50" height="30" as="geometry" />
        </mxCell>
        <mxCell id="ddricrF3TzjCCp_cF3EX-45" value="3" style="rounded=0;whiteSpace=wrap;html=1;" vertex="1" parent="1">
          <mxGeometry x="170" y="140" width="120" height="30" as="geometry" />
        </mxCell>
        <mxCell id="ddricrF3TzjCCp_cF3EX-46" value="4" style="rounded=0;whiteSpace=wrap;html=1;" vertex="1" parent="1">
          <mxGeometry x="170" y="170" width="120" height="30" as="geometry" />
        </mxCell>
        <mxCell id="ddricrF3TzjCCp_cF3EX-47" value="5" style="rounded=0;whiteSpace=wrap;html=1;" vertex="1" parent="1">
          <mxGeometry x="170" y="200" width="120" height="30" as="geometry" />
        </mxCell>
        <mxCell id="ddricrF3TzjCCp_cF3EX-48" value="6" style="rounded=0;whiteSpace=wrap;html=1;" vertex="1" parent="1">
          <mxGeometry x="170" y="230" width="120" height="30" as="geometry" />
        </mxCell>
        <mxCell id="ddricrF3TzjCCp_cF3EX-49" value="7" style="rounded=0;whiteSpace=wrap;html=1;" vertex="1" parent="1">
          <mxGeometry x="170" y="260" width="120" height="30" as="geometry" />
        </mxCell>
        <mxCell id="ddricrF3TzjCCp_cF3EX-50" value="8" style="rounded=0;whiteSpace=wrap;html=1;" vertex="1" parent="1">
          <mxGeometry x="170" y="290" width="120" height="30" as="geometry" />
        </mxCell>
        <mxCell id="ddricrF3TzjCCp_cF3EX-51" value="9" style="rounded=0;whiteSpace=wrap;html=1;" vertex="1" parent="1">
          <mxGeometry x="170" y="320" width="120" height="30" as="geometry" />
        </mxCell>
        <mxCell id="ddricrF3TzjCCp_cF3EX-52" value="10" style="rounded=0;whiteSpace=wrap;html=1;" vertex="1" parent="1">
          <mxGeometry x="170" y="350" width="120" height="30" as="geometry" />
        </mxCell>
        <mxCell id="ddricrF3TzjCCp_cF3EX-53" value="11" style="rounded=0;whiteSpace=wrap;html=1;" vertex="1" parent="1">
          <mxGeometry x="170" y="380" width="120" height="30" as="geometry" />
        </mxCell>
        <mxCell id="ddricrF3TzjCCp_cF3EX-54" value="12" style="rounded=0;whiteSpace=wrap;html=1;" vertex="1" parent="1">
          <mxGeometry x="170" y="410" width="120" height="30" as="geometry" />
        </mxCell>
        <mxCell id="ddricrF3TzjCCp_cF3EX-55" value="18" style="rounded=0;whiteSpace=wrap;html=1;" vertex="1" parent="1">
          <mxGeometry x="170" y="590" width="120" height="30" as="geometry" />
        </mxCell>
        <mxCell id="ddricrF3TzjCCp_cF3EX-56" value="17" style="rounded=0;whiteSpace=wrap;html=1;" vertex="1" parent="1">
          <mxGeometry x="170" y="560" width="120" height="30" as="geometry" />
        </mxCell>
        <mxCell id="ddricrF3TzjCCp_cF3EX-57" value="16" style="rounded=0;whiteSpace=wrap;html=1;" vertex="1" parent="1">
          <mxGeometry x="170" y="530" width="120" height="30" as="geometry" />
        </mxCell>
        <mxCell id="ddricrF3TzjCCp_cF3EX-58" value="15" style="rounded=0;whiteSpace=wrap;html=1;" vertex="1" parent="1">
          <mxGeometry x="170" y="500" width="120" height="30" as="geometry" />
        </mxCell>
        <mxCell id="ddricrF3TzjCCp_cF3EX-59" value="14" style="rounded=0;whiteSpace=wrap;html=1;" vertex="1" parent="1">
          <mxGeometry x="170" y="470" width="120" height="30" as="geometry" />
        </mxCell>
        <mxCell id="ddricrF3TzjCCp_cF3EX-60" value="13" style="rounded=0;whiteSpace=wrap;html=1;" vertex="1" parent="1">
          <mxGeometry x="170" y="440" width="120" height="30" as="geometry" />
        </mxCell>
        <mxCell id="ddricrF3TzjCCp_cF3EX-61" value="-" style="rounded=0;whiteSpace=wrap;html=1;" vertex="1" parent="1">
          <mxGeometry x="290" y="140" width="150" height="30" as="geometry" />
        </mxCell>
        <mxCell id="ddricrF3TzjCCp_cF3EX-62" value="-" style="rounded=0;whiteSpace=wrap;html=1;" vertex="1" parent="1">
          <mxGeometry x="440" y="140" width="100" height="30" as="geometry" />
        </mxCell>
        <mxCell id="ddricrF3TzjCCp_cF3EX-63" value="-" style="rounded=0;whiteSpace=wrap;html=1;" vertex="1" parent="1">
          <mxGeometry x="290" y="170" width="150" height="30" as="geometry" />
        </mxCell>
        <mxCell id="ddricrF3TzjCCp_cF3EX-64" value="-" style="rounded=0;whiteSpace=wrap;html=1;" vertex="1" parent="1">
          <mxGeometry x="290" y="200" width="150" height="30" as="geometry" />
        </mxCell>
        <mxCell id="ddricrF3TzjCCp_cF3EX-70" value="-" style="rounded=0;whiteSpace=wrap;html=1;" vertex="1" parent="1">
          <mxGeometry x="290" y="230" width="150" height="30" as="geometry" />
        </mxCell>
        <mxCell id="ddricrF3TzjCCp_cF3EX-71" value="-" style="rounded=0;whiteSpace=wrap;html=1;" vertex="1" parent="1">
          <mxGeometry x="290" y="260" width="150" height="30" as="geometry" />
        </mxCell>
        <mxCell id="ddricrF3TzjCCp_cF3EX-72" value="-" style="rounded=0;whiteSpace=wrap;html=1;" vertex="1" parent="1">
          <mxGeometry x="290" y="290" width="150" height="30" as="geometry" />
        </mxCell>
        <mxCell id="ddricrF3TzjCCp_cF3EX-73" value="-" style="rounded=0;whiteSpace=wrap;html=1;" vertex="1" parent="1">
          <mxGeometry x="290" y="320" width="150" height="30" as="geometry" />
        </mxCell>
        <mxCell id="ddricrF3TzjCCp_cF3EX-74" value="-" style="rounded=0;whiteSpace=wrap;html=1;" vertex="1" parent="1">
          <mxGeometry x="290" y="350" width="150" height="30" as="geometry" />
        </mxCell>
        <mxCell id="ddricrF3TzjCCp_cF3EX-75" value="-" style="rounded=0;whiteSpace=wrap;html=1;" vertex="1" parent="1">
          <mxGeometry x="290" y="380" width="150" height="30" as="geometry" />
        </mxCell>
        <mxCell id="ddricrF3TzjCCp_cF3EX-76" value="-" style="rounded=0;whiteSpace=wrap;html=1;" vertex="1" parent="1">
          <mxGeometry x="290" y="410" width="150" height="30" as="geometry" />
        </mxCell>
        <mxCell id="ddricrF3TzjCCp_cF3EX-77" value="-" style="rounded=0;whiteSpace=wrap;html=1;" vertex="1" parent="1">
          <mxGeometry x="290" y="440" width="150" height="30" as="geometry" />
        </mxCell>
        <mxCell id="ddricrF3TzjCCp_cF3EX-78" value="-" style="rounded=0;whiteSpace=wrap;html=1;" vertex="1" parent="1">
          <mxGeometry x="290" y="470" width="150" height="30" as="geometry" />
        </mxCell>
        <mxCell id="ddricrF3TzjCCp_cF3EX-79" value="-" style="rounded=0;whiteSpace=wrap;html=1;" vertex="1" parent="1">
          <mxGeometry x="290" y="500" width="150" height="30" as="geometry" />
        </mxCell>
        <mxCell id="ddricrF3TzjCCp_cF3EX-80" value="-" style="rounded=0;whiteSpace=wrap;html=1;" vertex="1" parent="1">
          <mxGeometry x="290" y="530" width="150" height="30" as="geometry" />
        </mxCell>
        <mxCell id="ddricrF3TzjCCp_cF3EX-81" value="-" style="rounded=0;whiteSpace=wrap;html=1;" vertex="1" parent="1">
          <mxGeometry x="290" y="560" width="150" height="30" as="geometry" />
        </mxCell>
        <mxCell id="ddricrF3TzjCCp_cF3EX-82" value="-" style="rounded=0;whiteSpace=wrap;html=1;" vertex="1" parent="1">
          <mxGeometry x="290" y="590" width="150" height="30" as="geometry" />
        </mxCell>
        <mxCell id="ddricrF3TzjCCp_cF3EX-85" value="-" style="rounded=0;whiteSpace=wrap;html=1;" vertex="1" parent="1">
          <mxGeometry x="440" y="200" width="100" height="30" as="geometry" />
        </mxCell>
        <mxCell id="ddricrF3TzjCCp_cF3EX-86" value="-" style="rounded=0;whiteSpace=wrap;html=1;" vertex="1" parent="1">
          <mxGeometry x="440" y="230" width="100" height="30" as="geometry" />
        </mxCell>
        <mxCell id="ddricrF3TzjCCp_cF3EX-87" value="-" style="rounded=0;whiteSpace=wrap;html=1;" vertex="1" parent="1">
          <mxGeometry x="440" y="260" width="100" height="30" as="geometry" />
        </mxCell>
        <mxCell id="ddricrF3TzjCCp_cF3EX-88" value="-" style="rounded=0;whiteSpace=wrap;html=1;" vertex="1" parent="1">
          <mxGeometry x="440" y="290" width="100" height="30" as="geometry" />
        </mxCell>
        <mxCell id="ddricrF3TzjCCp_cF3EX-89" value="-" style="rounded=0;whiteSpace=wrap;html=1;" vertex="1" parent="1">
          <mxGeometry x="440" y="320" width="100" height="30" as="geometry" />
        </mxCell>
        <mxCell id="ddricrF3TzjCCp_cF3EX-90" value="-" style="rounded=0;whiteSpace=wrap;html=1;" vertex="1" parent="1">
          <mxGeometry x="440" y="350" width="100" height="30" as="geometry" />
        </mxCell>
        <mxCell id="ddricrF3TzjCCp_cF3EX-91" value="-" style="rounded=0;whiteSpace=wrap;html=1;" vertex="1" parent="1">
          <mxGeometry x="440" y="380" width="100" height="30" as="geometry" />
        </mxCell>
        <mxCell id="ddricrF3TzjCCp_cF3EX-92" value="-" style="rounded=0;whiteSpace=wrap;html=1;" vertex="1" parent="1">
          <mxGeometry x="440" y="410" width="100" height="30" as="geometry" />
        </mxCell>
        <mxCell id="ddricrF3TzjCCp_cF3EX-93" value="-" style="rounded=0;whiteSpace=wrap;html=1;" vertex="1" parent="1">
          <mxGeometry x="440" y="440" width="100" height="30" as="geometry" />
        </mxCell>
        <mxCell id="ddricrF3TzjCCp_cF3EX-94" value="-" style="rounded=0;whiteSpace=wrap;html=1;" vertex="1" parent="1">
          <mxGeometry x="440" y="470" width="100" height="30" as="geometry" />
        </mxCell>
        <mxCell id="ddricrF3TzjCCp_cF3EX-95" value="-" style="rounded=0;whiteSpace=wrap;html=1;" vertex="1" parent="1">
          <mxGeometry x="440" y="500" width="100" height="30" as="geometry" />
        </mxCell>
        <mxCell id="ddricrF3TzjCCp_cF3EX-96" value="-" style="rounded=0;whiteSpace=wrap;html=1;" vertex="1" parent="1">
          <mxGeometry x="440" y="530" width="100" height="30" as="geometry" />
        </mxCell>
        <mxCell id="ddricrF3TzjCCp_cF3EX-97" value="-" style="rounded=0;whiteSpace=wrap;html=1;" vertex="1" parent="1">
          <mxGeometry x="440" y="560" width="100" height="30" as="geometry" />
        </mxCell>
        <mxCell id="ddricrF3TzjCCp_cF3EX-98" value="-" style="rounded=0;whiteSpace=wrap;html=1;" vertex="1" parent="1">
          <mxGeometry x="440" y="590" width="100" height="30" as="geometry" />
        </mxCell>
        <mxCell id="ddricrF3TzjCCp_cF3EX-101" value="-" style="rounded=0;whiteSpace=wrap;html=1;" vertex="1" parent="1">
          <mxGeometry x="440" y="170" width="100" height="30" as="geometry" />
        </mxCell>
        <mxCell id="ddricrF3TzjCCp_cF3EX-115" value="+" style="ellipse;whiteSpace=wrap;html=1;" vertex="1" parent="1">
          <mxGeometry x="620" y="140" width="50" height="30" as="geometry" />
        </mxCell>
        <mxCell id="ddricrF3TzjCCp_cF3EX-117" value="+" style="ellipse;whiteSpace=wrap;html=1;" vertex="1" parent="1">
          <mxGeometry x="620" y="230" width="50" height="30" as="geometry" />
        </mxCell>
        <mxCell id="ddricrF3TzjCCp_cF3EX-119" value="+" style="ellipse;whiteSpace=wrap;html=1;" vertex="1" parent="1">
          <mxGeometry x="620" y="200" width="50" height="30" as="geometry" />
        </mxCell>
        <mxCell id="ddricrF3TzjCCp_cF3EX-123" value="+" style="ellipse;whiteSpace=wrap;html=1;" vertex="1" parent="1">
          <mxGeometry x="620" y="290" width="50" height="30" as="geometry" />
        </mxCell>
        <mxCell id="ddricrF3TzjCCp_cF3EX-124" value="+" style="ellipse;whiteSpace=wrap;html=1;" vertex="1" parent="1">
          <mxGeometry x="620" y="320" width="50" height="30" as="geometry" />
        </mxCell>
        <mxCell id="ddricrF3TzjCCp_cF3EX-125" value="+" style="ellipse;whiteSpace=wrap;html=1;" vertex="1" parent="1">
          <mxGeometry x="620" y="500" width="50" height="30" as="geometry" />
        </mxCell>
        <mxCell id="ddricrF3TzjCCp_cF3EX-126" value="+" style="ellipse;whiteSpace=wrap;html=1;" vertex="1" parent="1">
          <mxGeometry x="620" y="470" width="50" height="30" as="geometry" />
        </mxCell>
        <mxCell id="ddricrF3TzjCCp_cF3EX-127" value="+" style="ellipse;whiteSpace=wrap;html=1;" vertex="1" parent="1">
          <mxGeometry x="620" y="440" width="50" height="30" as="geometry" />
        </mxCell>
        <mxCell id="ddricrF3TzjCCp_cF3EX-128" value="+" style="ellipse;whiteSpace=wrap;html=1;" vertex="1" parent="1">
          <mxGeometry x="620" y="410" width="50" height="30" as="geometry" />
        </mxCell>
        <mxCell id="ddricrF3TzjCCp_cF3EX-129" value="+" style="ellipse;whiteSpace=wrap;html=1;" vertex="1" parent="1">
          <mxGeometry x="620" y="380" width="50" height="30" as="geometry" />
        </mxCell>
        <mxCell id="ddricrF3TzjCCp_cF3EX-130" value="+" style="ellipse;whiteSpace=wrap;html=1;" vertex="1" parent="1">
          <mxGeometry x="620" y="350" width="50" height="30" as="geometry" />
        </mxCell>
        <mxCell id="ddricrF3TzjCCp_cF3EX-132" value="+" style="ellipse;whiteSpace=wrap;html=1;" vertex="1" parent="1">
          <mxGeometry x="620" y="590" width="50" height="30" as="geometry" />
        </mxCell>
        <mxCell id="ddricrF3TzjCCp_cF3EX-133" value="+" style="ellipse;whiteSpace=wrap;html=1;" vertex="1" parent="1">
          <mxGeometry x="620" y="560" width="50" height="30" as="geometry" />
        </mxCell>
        <mxCell id="ddricrF3TzjCCp_cF3EX-134" value="+" style="ellipse;whiteSpace=wrap;html=1;" vertex="1" parent="1">
          <mxGeometry x="620" y="530" width="50" height="30" as="geometry" />
        </mxCell>
        <mxCell id="ddricrF3TzjCCp_cF3EX-135" value="+" style="ellipse;whiteSpace=wrap;html=1;" vertex="1" parent="1">
          <mxGeometry x="620" y="170" width="50" height="30" as="geometry" />
        </mxCell>
        <mxCell id="ddricrF3TzjCCp_cF3EX-139" value="+" style="ellipse;whiteSpace=wrap;html=1;" vertex="1" parent="1">
          <mxGeometry x="620" y="260" width="50" height="30" as="geometry" />
        </mxCell>
        <mxCell id="ddricrF3TzjCCp_cF3EX-142" value="-" style="rounded=0;whiteSpace=wrap;html=1;" vertex="1" parent="1">
          <mxGeometry x="540" y="80" width="80" height="30" as="geometry" />
        </mxCell>
        <mxCell id="ddricrF3TzjCCp_cF3EX-143" value="-" style="rounded=0;whiteSpace=wrap;html=1;" vertex="1" parent="1">
          <mxGeometry x="540" y="110" width="80" height="30" as="geometry" />
        </mxCell>
        <mxCell id="ddricrF3TzjCCp_cF3EX-144" value="-" style="rounded=0;whiteSpace=wrap;html=1;" vertex="1" parent="1">
          <mxGeometry x="540" y="410" width="80" height="30" as="geometry" />
        </mxCell>
        <mxCell id="ddricrF3TzjCCp_cF3EX-145" value="-" style="rounded=0;whiteSpace=wrap;html=1;" vertex="1" parent="1">
          <mxGeometry x="540" y="440" width="80" height="30" as="geometry" />
        </mxCell>
        <mxCell id="ddricrF3TzjCCp_cF3EX-146" value="-" style="rounded=0;whiteSpace=wrap;html=1;" vertex="1" parent="1">
          <mxGeometry x="540" y="470" width="80" height="30" as="geometry" />
        </mxCell>
        <mxCell id="ddricrF3TzjCCp_cF3EX-147" value="-" style="rounded=0;whiteSpace=wrap;html=1;" vertex="1" parent="1">
          <mxGeometry x="540" y="500" width="80" height="30" as="geometry" />
        </mxCell>
        <mxCell id="ddricrF3TzjCCp_cF3EX-148" value="-" style="rounded=0;whiteSpace=wrap;html=1;" vertex="1" parent="1">
          <mxGeometry x="540" y="530" width="80" height="30" as="geometry" />
        </mxCell>
        <mxCell id="ddricrF3TzjCCp_cF3EX-149" value="-" style="rounded=0;whiteSpace=wrap;html=1;" vertex="1" parent="1">
          <mxGeometry x="540" y="560" width="80" height="30" as="geometry" />
        </mxCell>
        <mxCell id="ddricrF3TzjCCp_cF3EX-150" value="-" style="rounded=0;whiteSpace=wrap;html=1;" vertex="1" parent="1">
          <mxGeometry x="540" y="590" width="80" height="30" as="geometry" />
        </mxCell>
        <mxCell id="ddricrF3TzjCCp_cF3EX-157" value="-" style="rounded=0;whiteSpace=wrap;html=1;" vertex="1" parent="1">
          <mxGeometry x="540" y="260" width="80" height="30" as="geometry" />
        </mxCell>
        <mxCell id="ddricrF3TzjCCp_cF3EX-158" value="-" style="rounded=0;whiteSpace=wrap;html=1;" vertex="1" parent="1">
          <mxGeometry x="540" y="290" width="80" height="30" as="geometry" />
        </mxCell>
        <mxCell id="ddricrF3TzjCCp_cF3EX-159" value="-" style="rounded=0;whiteSpace=wrap;html=1;" vertex="1" parent="1">
          <mxGeometry x="540" y="320" width="80" height="30" as="geometry" />
        </mxCell>
        <mxCell id="ddricrF3TzjCCp_cF3EX-160" value="-" style="rounded=0;whiteSpace=wrap;html=1;" vertex="1" parent="1">
          <mxGeometry x="540" y="350" width="80" height="30" as="geometry" />
        </mxCell>
        <mxCell id="ddricrF3TzjCCp_cF3EX-161" value="-" style="rounded=0;whiteSpace=wrap;html=1;" vertex="1" parent="1">
          <mxGeometry x="540" y="380" width="80" height="30" as="geometry" />
        </mxCell>
        <mxCell id="ddricrF3TzjCCp_cF3EX-162" value="-" style="rounded=0;whiteSpace=wrap;html=1;" vertex="1" parent="1">
          <mxGeometry x="540" y="140" width="80" height="30" as="geometry" />
        </mxCell>
        <mxCell id="ddricrF3TzjCCp_cF3EX-163" value="-" style="rounded=0;whiteSpace=wrap;html=1;" vertex="1" parent="1">
          <mxGeometry x="540" y="170" width="80" height="30" as="geometry" />
        </mxCell>
        <mxCell id="ddricrF3TzjCCp_cF3EX-164" value="-" style="rounded=0;whiteSpace=wrap;html=1;" vertex="1" parent="1">
          <mxGeometry x="540" y="200" width="80" height="30" as="geometry" />
        </mxCell>
        <mxCell id="ddricrF3TzjCCp_cF3EX-165" value="-" style="rounded=0;whiteSpace=wrap;html=1;" vertex="1" parent="1">
          <mxGeometry x="540" y="230" width="80" height="30" as="geometry" />
        </mxCell>
        <mxCell id="ddricrF3TzjCCp_cF3EX-166" value="-" style="ellipse;whiteSpace=wrap;html=1;" vertex="1" parent="1">
          <mxGeometry x="670" y="80" width="50" height="30" as="geometry" />
        </mxCell>
        <mxCell id="ddricrF3TzjCCp_cF3EX-167" value="-" style="ellipse;whiteSpace=wrap;html=1;" vertex="1" parent="1">
          <mxGeometry x="670" y="230" width="50" height="30" as="geometry" />
        </mxCell>
        <mxCell id="ddricrF3TzjCCp_cF3EX-168" value="-" style="ellipse;whiteSpace=wrap;html=1;" vertex="1" parent="1">
          <mxGeometry x="670" y="260" width="50" height="30" as="geometry" />
        </mxCell>
        <mxCell id="ddricrF3TzjCCp_cF3EX-169" value="-" style="ellipse;whiteSpace=wrap;html=1;" vertex="1" parent="1">
          <mxGeometry x="670" y="290" width="50" height="30" as="geometry" />
        </mxCell>
        <mxCell id="ddricrF3TzjCCp_cF3EX-170" value="-" style="ellipse;whiteSpace=wrap;html=1;" vertex="1" parent="1">
          <mxGeometry x="670" y="320" width="50" height="30" as="geometry" />
        </mxCell>
        <mxCell id="ddricrF3TzjCCp_cF3EX-171" value="-" style="ellipse;whiteSpace=wrap;html=1;" vertex="1" parent="1">
          <mxGeometry x="670" y="350" width="50" height="30" as="geometry" />
        </mxCell>
        <mxCell id="ddricrF3TzjCCp_cF3EX-172" value="-" style="ellipse;whiteSpace=wrap;html=1;" vertex="1" parent="1">
          <mxGeometry x="670" y="380" width="50" height="30" as="geometry" />
        </mxCell>
        <mxCell id="ddricrF3TzjCCp_cF3EX-173" value="-" style="ellipse;whiteSpace=wrap;html=1;" vertex="1" parent="1">
          <mxGeometry x="670" y="440" width="50" height="30" as="geometry" />
        </mxCell>
        <mxCell id="ddricrF3TzjCCp_cF3EX-174" value="-" style="ellipse;whiteSpace=wrap;html=1;" vertex="1" parent="1">
          <mxGeometry x="670" y="500" width="50" height="30" as="geometry" />
        </mxCell>
        <mxCell id="ddricrF3TzjCCp_cF3EX-175" value="-" style="ellipse;whiteSpace=wrap;html=1;" vertex="1" parent="1">
          <mxGeometry x="670" y="410" width="50" height="30" as="geometry" />
        </mxCell>
        <mxCell id="ddricrF3TzjCCp_cF3EX-176" value="-" style="ellipse;whiteSpace=wrap;html=1;" vertex="1" parent="1">
          <mxGeometry x="670" y="470" width="50" height="30" as="geometry" />
        </mxCell>
        <mxCell id="ddricrF3TzjCCp_cF3EX-177" value="-" style="ellipse;whiteSpace=wrap;html=1;" vertex="1" parent="1">
          <mxGeometry x="670" y="530" width="50" height="30" as="geometry" />
        </mxCell>
        <mxCell id="ddricrF3TzjCCp_cF3EX-178" value="-" style="ellipse;whiteSpace=wrap;html=1;" vertex="1" parent="1">
          <mxGeometry x="670" y="560" width="50" height="30" as="geometry" />
        </mxCell>
        <mxCell id="ddricrF3TzjCCp_cF3EX-179" value="-" style="ellipse;whiteSpace=wrap;html=1;" vertex="1" parent="1">
          <mxGeometry x="670" y="590" width="50" height="30" as="geometry" />
        </mxCell>
        <mxCell id="ddricrF3TzjCCp_cF3EX-180" value="-" style="ellipse;whiteSpace=wrap;html=1;" vertex="1" parent="1">
          <mxGeometry x="670" y="170" width="50" height="30" as="geometry" />
        </mxCell>
        <mxCell id="ddricrF3TzjCCp_cF3EX-181" value="-" style="ellipse;whiteSpace=wrap;html=1;" vertex="1" parent="1">
          <mxGeometry x="670" y="140" width="50" height="30" as="geometry" />
        </mxCell>
        <mxCell id="ddricrF3TzjCCp_cF3EX-182" value="-" style="ellipse;whiteSpace=wrap;html=1;" vertex="1" parent="1">
          <mxGeometry x="670" y="110" width="50" height="30" as="geometry" />
        </mxCell>
        <mxCell id="ddricrF3TzjCCp_cF3EX-184" value="-" style="ellipse;whiteSpace=wrap;html=1;" vertex="1" parent="1">
          <mxGeometry x="670" y="200" width="50" height="30" as="geometry" />
        </mxCell>
        <mxCell id="ddricrF3TzjCCp_cF3EX-185" value="c" style="ellipse;whiteSpace=wrap;html=1;" vertex="1" parent="1">
          <mxGeometry x="720" y="80" width="50" height="30" as="geometry" />
        </mxCell>
        <mxCell id="ddricrF3TzjCCp_cF3EX-186" value="c" style="ellipse;whiteSpace=wrap;html=1;" vertex="1" parent="1">
          <mxGeometry x="720" y="290" width="50" height="30" as="geometry" />
        </mxCell>
        <mxCell id="ddricrF3TzjCCp_cF3EX-187" value="c" style="ellipse;whiteSpace=wrap;html=1;" vertex="1" parent="1">
          <mxGeometry x="720" y="320" width="50" height="30" as="geometry" />
        </mxCell>
        <mxCell id="ddricrF3TzjCCp_cF3EX-188" value="c" style="ellipse;whiteSpace=wrap;html=1;" vertex="1" parent="1">
          <mxGeometry x="720" y="350" width="50" height="30" as="geometry" />
        </mxCell>
        <mxCell id="ddricrF3TzjCCp_cF3EX-189" value="c" style="ellipse;whiteSpace=wrap;html=1;" vertex="1" parent="1">
          <mxGeometry x="720" y="500" width="50" height="30" as="geometry" />
        </mxCell>
        <mxCell id="ddricrF3TzjCCp_cF3EX-190" value="c" style="ellipse;whiteSpace=wrap;html=1;" vertex="1" parent="1">
          <mxGeometry x="720" y="380" width="50" height="30" as="geometry" />
        </mxCell>
        <mxCell id="ddricrF3TzjCCp_cF3EX-191" value="c" style="ellipse;whiteSpace=wrap;html=1;" vertex="1" parent="1">
          <mxGeometry x="720" y="410" width="50" height="30" as="geometry" />
        </mxCell>
        <mxCell id="ddricrF3TzjCCp_cF3EX-192" value="c" style="ellipse;whiteSpace=wrap;html=1;" vertex="1" parent="1">
          <mxGeometry x="720" y="440" width="50" height="30" as="geometry" />
        </mxCell>
        <mxCell id="ddricrF3TzjCCp_cF3EX-193" value="c" style="ellipse;whiteSpace=wrap;html=1;" vertex="1" parent="1">
          <mxGeometry x="720" y="470" width="50" height="30" as="geometry" />
        </mxCell>
        <mxCell id="ddricrF3TzjCCp_cF3EX-194" value="c" style="ellipse;whiteSpace=wrap;html=1;" vertex="1" parent="1">
          <mxGeometry x="720" y="530" width="50" height="30" as="geometry" />
        </mxCell>
        <mxCell id="ddricrF3TzjCCp_cF3EX-195" value="c" style="ellipse;whiteSpace=wrap;html=1;" vertex="1" parent="1">
          <mxGeometry x="720" y="560" width="50" height="30" as="geometry" />
        </mxCell>
        <mxCell id="ddricrF3TzjCCp_cF3EX-196" value="c" style="ellipse;whiteSpace=wrap;html=1;" vertex="1" parent="1">
          <mxGeometry x="720" y="590" width="50" height="30" as="geometry" />
        </mxCell>
        <mxCell id="ddricrF3TzjCCp_cF3EX-198" value="c" style="ellipse;whiteSpace=wrap;html=1;" vertex="1" parent="1">
          <mxGeometry x="720" y="200" width="50" height="30" as="geometry" />
        </mxCell>
        <mxCell id="ddricrF3TzjCCp_cF3EX-199" value="c" style="ellipse;whiteSpace=wrap;html=1;" vertex="1" parent="1">
          <mxGeometry x="720" y="230" width="50" height="30" as="geometry" />
        </mxCell>
        <mxCell id="ddricrF3TzjCCp_cF3EX-200" value="c" style="ellipse;whiteSpace=wrap;html=1;" vertex="1" parent="1">
          <mxGeometry x="720" y="80" width="50" height="30" as="geometry" />
        </mxCell>
        <mxCell id="ddricrF3TzjCCp_cF3EX-201" value="c" style="ellipse;whiteSpace=wrap;html=1;" vertex="1" parent="1">
          <mxGeometry x="720" y="260" width="50" height="30" as="geometry" />
        </mxCell>
        <mxCell id="ddricrF3TzjCCp_cF3EX-202" value="c" style="ellipse;whiteSpace=wrap;html=1;" vertex="1" parent="1">
          <mxGeometry x="720" y="110" width="50" height="30" as="geometry" />
        </mxCell>
        <mxCell id="ddricrF3TzjCCp_cF3EX-203" value="c" style="ellipse;whiteSpace=wrap;html=1;" vertex="1" parent="1">
          <mxGeometry x="720" y="140" width="50" height="30" as="geometry" />
        </mxCell>
        <mxCell id="ddricrF3TzjCCp_cF3EX-204" value="c" style="ellipse;whiteSpace=wrap;html=1;" vertex="1" parent="1">
          <mxGeometry x="720" y="170" width="50" height="30" as="geometry" />
        </mxCell>
      </root>
    </mxGraphModel>
  </diagram>
</mxfile>
